<svg width="266" height="52" viewBox="0 0 266 52" fill="none" xmlns="http://www.w3.org/2000/svg">
<path d="M0.263977 40V0.79999H7.54398V33.84H28.04V40H0.263977Z" fill="black"/>
<path d="M46.282 40.392C43.2206 40.392 40.4953 39.7387 38.106 38.432C35.7166 37.088 33.8313 35.2587 32.45 32.944C31.0686 30.6293 30.378 27.9973 30.378 25.048C30.378 22.0613 31.0686 19.4293 32.45 17.152C33.8313 14.8373 35.7166 13.0267 38.106 11.72C40.4953 10.4133 43.2206 9.75999 46.282 9.75999C49.3806 9.75999 52.1246 10.4133 54.514 11.72C56.9406 13.0267 58.826 14.8187 60.17 17.096C61.5513 19.3733 62.242 22.024 62.242 25.048C62.242 27.9973 61.5513 30.6293 60.17 32.944C58.826 35.2587 56.9406 37.088 54.514 38.432C52.1246 39.7387 49.3806 40.392 46.282 40.392ZM46.282 34.4C47.9993 34.4 49.53 34.0267 50.874 33.28C52.218 32.5333 53.2633 31.4507 54.01 30.032C54.794 28.6133 55.186 26.952 55.186 25.048C55.186 23.1067 54.794 21.4453 54.01 20.064C53.2633 18.6453 52.218 17.5627 50.874 16.816C49.53 16.0693 48.018 15.696 46.338 15.696C44.6206 15.696 43.09 16.0693 41.746 16.816C40.4393 17.5627 39.394 18.6453 38.61 20.064C37.826 21.4453 37.434 23.1067 37.434 25.048C37.434 26.952 37.826 28.6133 38.61 30.032C39.394 31.4507 40.4393 32.5333 41.746 33.28C43.09 34.0267 44.602 34.4 46.282 34.4Z" fill="black"/>
<path d="M82.4877 51.256C79.7251 51.256 77.0184 50.8827 74.3677 50.136C71.7544 49.4267 69.6077 48.3813 67.9277 47L71.0637 41.736C72.3704 42.8187 74.0131 43.6773 75.9917 44.312C78.0077 44.984 80.0424 45.32 82.0957 45.32C85.3811 45.32 87.7891 44.5547 89.3197 43.024C90.8504 41.5307 91.6157 39.272 91.6157 36.248V30.928L92.1757 24.152L91.9517 17.376V10.096H98.6157V35.464C98.6157 40.8773 97.2344 44.8533 94.4717 47.392C91.7091 49.968 87.7144 51.256 82.4877 51.256ZM81.5917 38.656C78.7544 38.656 76.1784 38.0587 73.8637 36.864C71.5864 35.632 69.7757 33.9333 68.4317 31.768C67.1251 29.6027 66.4717 27.064 66.4717 24.152C66.4717 21.2773 67.1251 18.7573 68.4317 16.592C69.7757 14.4267 71.5864 12.7467 73.8637 11.552C76.1784 10.3573 78.7544 9.75999 81.5917 9.75999C84.1304 9.75999 86.4077 10.264 88.4237 11.272C90.4397 12.28 92.0451 13.848 93.2397 15.976C94.4717 18.104 95.0877 20.8293 95.0877 24.152C95.0877 27.4747 94.4717 30.2187 93.2397 32.384C92.0451 34.512 90.4397 36.0987 88.4237 37.144C86.4077 38.152 84.1304 38.656 81.5917 38.656ZM82.6557 32.72C84.4104 32.72 85.9784 32.3653 87.3597 31.656C88.7411 30.9093 89.8051 29.9013 90.5517 28.632C91.3357 27.3253 91.7277 25.832 91.7277 24.152C91.7277 22.472 91.3357 20.9973 90.5517 19.728C89.8051 18.4213 88.7411 17.432 87.3597 16.76C85.9784 16.0507 84.4104 15.696 82.6557 15.696C80.9011 15.696 79.3144 16.0507 77.8957 16.76C76.5144 17.432 75.4317 18.4213 74.6477 19.728C73.9011 20.9973 73.5277 22.472 73.5277 24.152C73.5277 25.832 73.9011 27.3253 74.6477 28.632C75.4317 29.9013 76.5144 30.9093 77.8957 31.656C79.3144 32.3653 80.9011 32.72 82.6557 32.72Z" fill="black"/>
<path d="M121.259 40.392C118.197 40.392 115.472 39.7387 113.083 38.432C110.693 37.088 108.808 35.2587 107.427 32.944C106.045 30.6293 105.355 27.9973 105.355 25.048C105.355 22.0613 106.045 19.4293 107.427 17.152C108.808 14.8373 110.693 13.0267 113.083 11.72C115.472 10.4133 118.197 9.75999 121.259 9.75999C124.357 9.75999 127.101 10.4133 129.491 11.72C131.917 13.0267 133.803 14.8187 135.147 17.096C136.528 19.3733 137.219 22.024 137.219 25.048C137.219 27.9973 136.528 30.6293 135.147 32.944C133.803 35.2587 131.917 37.088 129.491 38.432C127.101 39.7387 124.357 40.392 121.259 40.392ZM121.259 34.4C122.976 34.4 124.507 34.0267 125.851 33.28C127.195 32.5333 128.24 31.4507 128.987 30.032C129.771 28.6133 130.163 26.952 130.163 25.048C130.163 23.1067 129.771 21.4453 128.987 20.064C128.24 18.6453 127.195 17.5627 125.851 16.816C124.507 16.0693 122.995 15.696 121.315 15.696C119.597 15.696 118.067 16.0693 116.723 16.816C115.416 17.5627 114.371 18.6453 113.587 20.064C112.803 21.4453 112.411 23.1067 112.411 25.048C112.411 26.952 112.803 28.6133 113.587 30.032C114.371 31.4507 115.416 32.5333 116.723 33.28C118.067 34.0267 119.579 34.4 121.259 34.4Z" fill="black"/>
<path d="M157.877 27.344V21.52H173.277V27.344H157.877Z" fill="black"/>
<path d="M215.228 40.56C212.242 40.56 209.46 40.0747 206.884 39.104C204.346 38.096 202.124 36.696 200.22 34.904C198.354 33.0747 196.898 30.928 195.852 28.464C194.807 26 194.284 23.312 194.284 20.4C194.284 17.488 194.807 14.8 195.852 12.336C196.898 9.87199 198.372 7.74399 200.276 5.95199C202.18 4.12266 204.402 2.72266 206.94 1.75199C209.479 0.74399 212.26 0.23999 215.284 0.23999C218.495 0.23999 221.426 0.799991 224.076 1.91999C226.727 3.00266 228.967 4.62666 230.796 6.79199L226.092 11.216C224.674 9.68533 223.087 8.54666 221.332 7.79999C219.578 7.01599 217.674 6.62399 215.62 6.62399C213.567 6.62399 211.682 6.95999 209.964 7.63199C208.284 8.30399 206.81 9.25599 205.54 10.488C204.308 11.72 203.338 13.176 202.628 14.856C201.956 16.536 201.62 18.384 201.62 20.4C201.62 22.416 201.956 24.264 202.628 25.944C203.338 27.624 204.308 29.08 205.54 30.312C206.81 31.544 208.284 32.496 209.964 33.168C211.682 33.84 213.567 34.176 215.62 34.176C217.674 34.176 219.578 33.8027 221.332 33.056C223.087 32.272 224.674 31.096 226.092 29.528L230.796 34.008C228.967 36.136 226.727 37.76 224.076 38.88C221.426 40 218.476 40.56 215.228 40.56Z" fill="black"/>
<path d="M249.391 40.392C246.33 40.392 243.605 39.7387 241.215 38.432C238.826 37.088 236.941 35.2587 235.559 32.944C234.178 30.6293 233.487 27.9973 233.487 25.048C233.487 22.0613 234.178 19.4293 235.559 17.152C236.941 14.8373 238.826 13.0267 241.215 11.72C243.605 10.4133 246.33 9.75999 249.391 9.75999C252.49 9.75999 255.234 10.4133 257.623 11.72C260.05 13.0267 261.935 14.8187 263.279 17.096C264.661 19.3733 265.351 22.024 265.351 25.048C265.351 27.9973 264.661 30.6293 263.279 32.944C261.935 35.2587 260.05 37.088 257.623 38.432C255.234 39.7387 252.49 40.392 249.391 40.392ZM249.391 34.4C251.109 34.4 252.639 34.0267 253.983 33.28C255.327 32.5333 256.373 31.4507 257.119 30.032C257.903 28.6133 258.295 26.952 258.295 25.048C258.295 23.1067 257.903 21.4453 257.119 20.064C256.373 18.6453 255.327 17.5627 253.983 16.816C252.639 16.0693 251.127 15.696 249.447 15.696C247.73 15.696 246.199 16.0693 244.855 16.816C243.549 17.5627 242.503 18.6453 241.719 20.064C240.935 21.4453 240.543 23.1067 240.543 25.048C240.543 26.952 240.935 28.6133 241.719 30.032C242.503 31.4507 243.549 32.5333 244.855 33.28C246.199 34.0267 247.711 34.4 249.391 34.4Z" fill="black"/>
</svg>
